name ./resultDataOpenSim/trcMotMarkerGrf/sub06/grf-04-02.mot
datacolumns 19
datarows 20
range 1.62000000 1.69600000
endheader

                time	     ground_force_vx	     ground_force_vy	     ground_force_vz	     ground_force_px	     ground_force_py	     ground_force_pz	   l_ground_force_vx	   l_ground_force_vy	   l_ground_force_vz	   l_ground_force_px	   l_ground_force_py	   l_ground_force_pz	     ground_torque_x	     ground_torque_y	     ground_torque_z	   l_ground_torque_x	   l_ground_torque_y	   l_ground_torque_z	
          1.62000000	        154.98108478	        804.79830669	        -46.01610678	          0.89070588	          0.00000000	          0.12731862	          0.00000000	          0.00000000	          0.00000000	          0.00000000	          0.00000000	          0.00000000	          0.00000000	          4.09909118	          0.00000000	          0.00000000	          0.00000000	          0.00000000	
          1.62400000	        160.66117466	        810.63256120	        -47.10047249	          0.89116279	          0.00000000	          0.12720959	          0.00000000	          0.00000000	          0.00000000	          0.00000000	          0.00000000	          0.00000000	          0.00000000	          4.23730694	          0.00000000	          0.00000000	          0.00000000	          0.00000000	
          1.62800000	        166.07361915	        814.71777529	        -48.40034127	          0.89164837	          0.00000000	          0.12708746	          0.00000000	          0.00000000	          0.00000000	          0.00000000	          0.00000000	          0.00000000	          0.00000000	          4.39618230	          0.00000000	          0.00000000	          0.00000000	          0.00000000	
          1.63200000	        171.17790502	        817.05169058	        -49.72956742	          0.89216562	          0.00000000	          0.12695041	          0.00000000	          0.00000000	          0.00000000	          0.00000000	          0.00000000	          0.00000000	          0.00000000	          4.57397294	          0.00000000	          0.00000000	          0.00000000	          0.00000000	
          1.63600000	        175.99506922	        817.64552216	        -50.86806105	          0.89271941	          0.00000000	          0.12680074	          0.00000000	          0.00000000	          0.00000000	          0.00000000	          0.00000000	          0.00000000	          0.00000000	          4.76403500	          0.00000000	          0.00000000	          0.00000000	          0.00000000	
          1.64000000	        180.64801341	        816.50859769	        -51.59304921	          0.89330705	          0.00000000	          0.12663567	          0.00000000	          0.00000000	          0.00000000	          0.00000000	          0.00000000	          0.00000000	          0.00000000	          4.95421469	          0.00000000	          0.00000000	          0.00000000	          0.00000000	
          1.64400000	        185.34012693	        813.62347599	        -51.72732994	          0.89390738	          0.00000000	          0.12644974	          0.00000000	          0.00000000	          0.00000000	          0.00000000	          0.00000000	          0.00000000	          0.00000000	          5.12759985	          0.00000000	          0.00000000	          0.00000000	          0.00000000	
          1.64800000	        190.24873584	        808.93518075	        -51.20285790	          0.89447497	          0.00000000	          0.12624610	          0.00000000	          0.00000000	          0.00000000	          0.00000000	          0.00000000	          0.00000000	          0.00000000	          5.26556223	          0.00000000	          0.00000000	          0.00000000	          0.00000000	
          1.65200000	        195.41173499	        802.37237223	        -50.08421403	          0.89498497	          0.00000000	          0.12603628	          0.00000000	          0.00000000	          0.00000000	          0.00000000	          0.00000000	          0.00000000	          0.00000000	          5.35286945	          0.00000000	          0.00000000	          0.00000000	          0.00000000	
          1.65600000	        200.69926407	        793.89151591	        -48.52477429	          0.89545726	          0.00000000	          0.12582495	          0.00000000	          0.00000000	          0.00000000	          0.00000000	          0.00000000	          0.00000000	          0.00000000	          5.38280313	          0.00000000	          0.00000000	          0.00000000	          0.00000000	
          1.66000000	        205.86655589	        783.49855525	        -46.71334792	          0.89591475	          0.00000000	          0.12560583	          0.00000000	          0.00000000	          0.00000000	          0.00000000	          0.00000000	          0.00000000	          0.00000000	          5.35948556	          0.00000000	          0.00000000	          0.00000000	          0.00000000	
          1.66400000	        210.60896898	        771.22271057	        -44.84469765	          0.89636375	          0.00000000	          0.12537653	          0.00000000	          0.00000000	          0.00000000	          0.00000000	          0.00000000	          0.00000000	          0.00000000	          5.29593117	          0.00000000	          0.00000000	          0.00000000	          0.00000000	
          1.66800000	        214.59649754	        757.08586779	        -43.09344973	          0.89682337	          0.00000000	          0.12514261	          0.00000000	          0.00000000	          0.00000000	          0.00000000	          0.00000000	          0.00000000	          0.00000000	          5.20860639	          0.00000000	          0.00000000	          0.00000000	          0.00000000	
          1.67200000	        217.54055545	        741.09886702	        -41.59367355	          0.89732290	          0.00000000	          0.12490494	          0.00000000	          0.00000000	          0.00000000	          0.00000000	          0.00000000	          0.00000000	          0.00000000	          5.11093319	          0.00000000	          0.00000000	          0.00000000	          0.00000000	
          1.67600000	        219.28263816	        723.24848576	        -40.42417394	          0.89787075	          0.00000000	          0.12465980	          0.00000000	          0.00000000	          0.00000000	          0.00000000	          0.00000000	          0.00000000	          0.00000000	          5.00844215	          0.00000000	          0.00000000	          0.00000000	          0.00000000	
          1.68000000	        219.82798856	        703.45269527	        -39.58578477	          0.89845411	          0.00000000	          0.12440485	          0.00000000	          0.00000000	          0.00000000	          0.00000000	          0.00000000	          0.00000000	          0.00000000	          4.89721508	          0.00000000	          0.00000000	          0.00000000	          0.00000000	
          1.68400000	        219.30635763	        681.52032914	        -38.99321018	          0.89903638	          0.00000000	          0.12413703	          0.00000000	          0.00000000	          0.00000000	          0.00000000	          0.00000000	          0.00000000	          0.00000000	          4.76566946	          0.00000000	          0.00000000	          0.00000000	          0.00000000	
          1.68800000	        217.90842460	        657.17126024	        -38.49426629	          0.89958305	          0.00000000	          0.12386426	          0.00000000	          0.00000000	          0.00000000	          0.00000000	          0.00000000	          0.00000000	          0.00000000	          4.59851335	          0.00000000	          0.00000000	          0.00000000	          0.00000000	
          1.69200000	        215.82968521	        630.12034273	        -37.89040146	          0.90007789	          0.00000000	          0.12360120	          0.00000000	          0.00000000	          0.00000000	          0.00000000	          0.00000000	          0.00000000	          0.00000000	          4.38115780	          0.00000000	          0.00000000	          0.00000000	          0.00000000	
          1.69600000	        213.21418824	        600.14630184	        -36.96242606	          0.90048898	          0.00000000	          0.12335719	          0.00000000	          0.00000000	          0.00000000	          0.00000000	          0.00000000	          0.00000000	          0.00000000	          4.10317628	          0.00000000	          0.00000000	          0.00000000	          0.00000000	
